<?xml version="1.0" encoding="UTF-8"?>
<svg version="1.1" xmlns="http://www.w3.org/2000/svg" width="48" height="48">
<path d="M0 0 C15.84 0 31.68 0 48 0 C48 15.84 48 31.68 48 48 C32.16 48 16.32 48 0 48 C0 32.16 0 16.32 0 0 Z " fill="#219CED" transform="translate(0,0)"/>
<path d="M0 0 C5.94 0 11.88 0 18 0 C18 0.99 18 1.98 18 3 C15.36 3 12.72 3 10 3 C10 10.59 10 18.18 10 26 C9.01 26 8.02 26 7 26 C7 18.41 7 10.82 7 3 C4.69 3 2.38 3 0 3 C0 2.01 0 1.02 0 0 Z " fill="#E0F1FC" transform="translate(25,11)"/>
<path d="M0 0 C3.96 0 7.92 0 12 0 C12 0.66 12 1.32 12 2 C10.68 2 9.36 2 8 2 C8.04640625 3.31355469 8.0928125 4.62710937 8.140625 5.98046875 C8.17815266 7.71612304 8.21455175 9.45180199 8.25 11.1875 C8.30027344 12.48397461 8.30027344 12.48397461 8.3515625 13.80664062 C8.41623874 18.02676542 8.36379466 20.38248588 6.1796875 24.08984375 C4 26 4 26 0.875 26.375 C-2 26 -2 26 -4 25 C-4 24.01 -4 23.02 -4 22 C-1.36 22.33 1.28 22.66 4 23 C4.33 16.4 4.66 9.8 5 3 C3.35 3 1.7 3 0 3 C0 2.01 0 1.02 0 0 Z " fill="#E5F3FC" transform="translate(10,11)"/>
</svg>
